<svg id="color_line" height="512" viewBox="0 0 74 74" width="512" xmlns="http://www.w3.org/2000/svg" data-name="color line"><path d="m4.844 66.248h45.77v4.752h-45.77z" fill="#E91E63"/><path d="m9.12 40.246h8.836v3.629h-8.836z" fill="#E91E63"/><path d="m17.956 44.375h-8.836a.5.5 0 0 1 -.5-.5v-3.629a.5.5 0 0 1 .5-.5h8.836a.5.5 0 0 1 .5.5v3.629a.5.5 0 0 1 -.5.5zm-8.336-1h7.836v-2.629h-7.836z" fill="#323c6b"/><path d="m9.12 62.984h8.836v3.264h-8.836z" fill="#E91E63"/><path d="m17.956 66.748h-8.836a.5.5 0 0 1 -.5-.5v-3.264a.5.5 0 0 1 .5-.5h8.836a.5.5 0 0 1 .5.5v3.263a.5.5 0 0 1 -.5.501zm-8.336-1h7.836v-2.264h-7.836z" fill="#323c6b"/><path d="m23.311 40.246h8.836v3.629h-8.836z" fill="#E91E63"/><path d="m32.147 44.375h-8.836a.5.5 0 0 1 -.5-.5v-3.629a.5.5 0 0 1 .5-.5h8.837a.5.5 0 0 1 .5.5v3.629a.5.5 0 0 1 -.501.5zm-8.337-1h7.837v-2.629h-7.836z" fill="#323c6b"/><path d="m23.311 62.984h8.836v3.264h-8.836z" fill="#E91E63"/><path d="m32.147 66.748h-8.836a.5.5 0 0 1 -.5-.5v-3.264a.5.5 0 0 1 .5-.5h8.837a.5.5 0 0 1 .5.5v3.263a.5.5 0 0 1 -.501.501zm-8.337-1h7.837v-2.264h-7.836z" fill="#323c6b"/><path d="m24.75 43.875h5.958v19.109h-5.958z" fill="#E91E63"/><path d="m38.941 43.875h5.958v19.109h-5.958z" fill="#E91E63"/><path d="m10.559 43.875h5.958v19.109h-5.958z" fill="#E91E63"/><path d="m37.501 40.246h8.836v3.629h-8.836z" fill="#E91E63"/><path d="m46.338 44.375h-8.838a.5.5 0 0 1 -.5-.5v-3.629a.5.5 0 0 1 .5-.5h8.837a.5.5 0 0 1 .5.5v3.629a.5.5 0 0 1 -.499.5zm-8.337-1h7.837v-2.629h-7.838z" fill="#323c6b"/><path d="m37.501 62.984h8.836v3.264h-8.836z" fill="#E91E63"/><path d="m46.338 66.748h-8.838a.5.5 0 0 1 -.5-.5v-3.264a.5.5 0 0 1 .5-.5h8.837a.5.5 0 0 1 .5.5v3.263a.5.5 0 0 1 -.499.501zm-8.337-1h7.837v-2.264h-7.838z" fill="#323c6b"/><path d="m5.808 34.417a.5.5 0 0 1 -.326-.879l.531-.458a.5.5 0 1 1 .652.758l-.531.458a.5.5 0 0 1 -.326.121z" fill="#323c6b"/><path d="m7.974 32.546a.5.5 0 0 1 -.327-.878l6.053-5.231a.5.5 0 0 1 .654.757l-6.054 5.231a.5.5 0 0 1 -.326.121z" fill="#323c6b"/><path d="m27.729 18.95-24.661 21.296h49.322z" fill="#E91E63"/><path d="m48.43 66.25h2.18v4.75h-2.18z" fill="#d5d6db"/><path d="m28.52 43.88h2.19v19.1h-2.19z" fill="#d5d6db"/><path d="m42.71 43.88h2.19v19.1h-2.19z" fill="#d5d6db"/><path d="m14.33 43.88h2.19v19.1h-2.19z" fill="#d5d6db"/><path d="m52.39 40.25h-3.44l-22.94-19.81 1.72-1.49z" fill="#d5d6db"/><circle cx="27.729" cy="29.31" fill="#9297ab" r="3.439"/><path d="m27.729 33.249a3.939 3.939 0 1 1 3.939-3.939 3.943 3.943 0 0 1 -3.939 3.939zm0-6.878a2.939 2.939 0 1 0 2.939 2.939 2.942 2.942 0 0 0 -2.939-2.939z" fill="#323c6b"/><path d="m72.139 10.625a.5.5 0 0 1 -.461-.307 15.985 15.985 0 0 0 -5.721-7.03.5.5 0 0 1 .566-.825 16.982 16.982 0 0 1 6.077 7.469.5.5 0 0 1 -.461.693z" fill="#323c6b"/><path d="m73.133 13.991a.5.5 0 0 1 -.491-.413q-.075-.423-.174-.837a.5.5 0 0 1 .973-.232q.105.442.186.9a.5.5 0 0 1 -.4.58.5.5 0 0 1 -.094.002z" fill="#323c6b"/><circle cx="56.971" cy="16.436" fill="#fcd462" r="13.436"/><path d="m70.41 16.44a13.407 13.407 0 0 1 -5.5 10.84 13.432 13.432 0 0 0 -17.88-19.87 13.43 13.43 0 0 1 23.38 9.03z" fill="#f7be56"/><g fill="#323c6b"><path d="m56.971 26.872a10.436 10.436 0 1 1 10.436-10.436 10.448 10.448 0 0 1 -10.436 10.436zm0-19.872a9.436 9.436 0 1 0 9.437 9.436 9.446 9.446 0 0 0 -9.437-9.436z"/><path d="m18.3 17.837a.5.5 0 0 1 -.5-.5v-5.562a3.348 3.348 0 0 1 3.346-3.345h12.015a.5.5 0 0 1 0 1h-12.015a2.347 2.347 0 0 0 -2.346 2.345v5.562a.5.5 0 0 1 -.5.5z"/><path d="m29.085 13.012a.5.5 0 0 1 -.33-.875l3.645-3.207-3.645-3.206a.5.5 0 1 1 .66-.751l4.076 3.582a.5.5 0 0 1 0 .751l-4.076 3.582a.5.5 0 0 1 -.33.124z"/><path d="m68.087 57.56h-12.016a.5.5 0 0 1 0-1h12.016a2.347 2.347 0 0 0 2.345-2.345v-5.562a.5.5 0 0 1 1 0v5.563a3.348 3.348 0 0 1 -3.345 3.344z"/><path d="m60.147 61.141a.5.5 0 0 1 -.33-.125l-4.076-3.582a.5.5 0 0 1 0-.751l4.076-3.583a.5.5 0 1 1 .66.751l-3.648 3.209 3.648 3.206a.5.5 0 0 1 -.33.875z"/><path d="m56.385 22.674v-.9a5.02 5.02 0 0 1 -2.637-.759l.413-1.155a4.593 4.593 0 0 0 2.482.741c1.224 0 2.051-.707 2.051-1.689 0-.948-.672-1.534-1.948-2.051-1.758-.689-2.844-1.482-2.844-2.982a2.828 2.828 0 0 1 2.6-2.776v-.9h1.068v.834a4.6 4.6 0 0 1 2.242.6l-.431 1.138a4.166 4.166 0 0 0 -2.172-.586c-1.328 0-1.827.793-1.827 1.482 0 .9.638 1.345 2.138 1.965 1.776.724 2.672 1.62 2.672 3.155a3 3 0 0 1 -2.724 2.931v.955z"/><path d="m56.971 30.372a13.936 13.936 0 1 1 13.936-13.936 13.951 13.951 0 0 1 -13.936 13.936zm0-26.872a12.936 12.936 0 1 0 12.936 12.936 12.95 12.95 0 0 0 -12.936-12.936z"/><path d="m30.708 63.484h-5.958a.5.5 0 0 1 -.5-.5v-19.109a.5.5 0 0 1 .5-.5h5.958a.5.5 0 0 1 .5.5v19.109a.5.5 0 0 1 -.5.5zm-5.458-1h4.958v-18.109h-4.958z"/><path d="m44.9 63.484h-5.96a.5.5 0 0 1 -.5-.5v-19.109a.5.5 0 0 1 .5-.5h5.96a.5.5 0 0 1 .5.5v19.109a.5.5 0 0 1 -.5.5zm-5.458-1h4.958v-18.109h-4.96z"/><path d="m16.518 63.484h-5.958a.5.5 0 0 1 -.5-.5v-19.109a.5.5 0 0 1 .5-.5h5.958a.5.5 0 0 1 .5.5v19.109a.5.5 0 0 1 -.5.5zm-5.458-1h4.958v-18.109h-4.958z"/><path d="m50.614 71.5h-45.77a.5.5 0 0 1 -.5-.5v-4.752a.5.5 0 0 1 .5-.5h45.77a.5.5 0 0 1 .5.5v4.752a.5.5 0 0 1 -.5.5zm-45.271-1h44.771v-3.752h-44.77z"/><path d="m52.39 40.746h-49.322a.5.5 0 0 1 -.327-.878l24.66-21.3a.5.5 0 0 1 .654 0l24.661 21.3a.5.5 0 0 1 -.327.878zm-47.978-1h46.634l-23.317-20.135z"/></g><path d="m51.588 21.538a.6.6 0 0 1 -.46-.215 7.578 7.578 0 0 1 -1.243-7.667.6.6 0 0 1 1.115.439 6.37 6.37 0 0 0 1.046 6.458.6.6 0 0 1 -.46.985z" fill="#fff"/><path d="m51.84 12.288a.6.6 0 0 1 -.449-1 6.776 6.776 0 0 1 .93-.881.6.6 0 0 1 .734.949 5.566 5.566 0 0 0 -.766.728.6.6 0 0 1 -.449.204z" fill="#fff"/></svg>